<?xml version="1.0" encoding="utf-8"?>
<!-- Generator: Adobe Illustrator 27.5.0, SVG Export Plug-In . SVG Version: 6.00 Build 0)  -->
<svg version="1.1" id="Layer_1" xmlns="http://www.w3.org/2000/svg" xmlns:xlink="http://www.w3.org/1999/xlink" x="0px" y="0px"
	 viewBox="0 0 100 100" style="enable-background:new 0 0 100 100;" xml:space="preserve">
<style type="text/css">
	.st0{fill:#69D2D7;}
	.st1{fill:#FFFFFF;}
</style>
<circle class="st0" cx="50" cy="50" r="46.5"/>
<g>
	<g>
		<path class="st1" d="M49.14,49.39V34.65c0-0.73-0.59-1.32-1.32-1.32c-0.73,0-1.32,0.59-1.32,1.32V50c0,0.39,0.17,0.76,0.47,1.01
			l8.49,7.18C55.7,58.4,56,58.5,56.31,58.5c0.38,0,0.75-0.16,1.01-0.47c0.47-0.56,0.4-1.39-0.16-1.86L49.14,49.39z"/>
		<path class="st1" d="M75.7,43.8h-2.61c-0.92-3.75-2.66-7.19-5.01-10.1l-4.43-18.58c-0.47-1.96-2.41-3.5-4.43-3.5H36.4
			c-2.01,0-3.96,1.54-4.43,3.5L27.55,33.7c-3.6,4.47-5.76,10.14-5.76,16.3c0,6.17,2.16,11.84,5.76,16.3l4.43,18.58
			c0.47,1.96,2.41,3.5,4.43,3.5h22.83c2.02,0,3.96-1.54,4.43-3.5l4.43-18.58c2.35-2.92,4.09-6.35,5.01-10.1h2.61
			c2.49,0,4.51-2.02,4.51-4.51v-3.38C80.21,45.82,78.19,43.8,75.7,43.8z M34.54,15.73c0.19-0.78,1.05-1.47,1.86-1.47h22.83
			c0.8,0,1.67,0.69,1.86,1.47l3.41,14.31c-4.52-3.78-10.34-6.07-16.68-6.07c-6.34,0-12.16,2.28-16.68,6.07L34.54,15.73z
			 M61.09,84.27c-0.19,0.78-1.05,1.47-1.86,1.47H36.4c-0.8,0-1.67-0.69-1.86-1.47l-3.41-14.31c4.52,3.78,10.34,6.07,16.68,6.07
			c6.34,0,12.16-2.28,16.68-6.07L61.09,84.27z M47.82,73.39C34.92,73.39,24.43,62.9,24.43,50c0-12.9,10.49-23.39,23.39-23.39
			C60.71,26.61,71.2,37.11,71.2,50C71.2,62.9,60.71,73.39,47.82,73.39z M77.57,51.69c0,1.03-0.84,1.87-1.87,1.87h-2.11
			c0.16-1.16,0.25-2.35,0.25-3.56c0-1.21-0.09-2.39-0.25-3.56h2.11c1.03,0,1.87,0.84,1.87,1.87V51.69z"/>
	</g>
</g>
</svg>
