<?xml version="1.0" encoding="utf-8"?>
<!-- Generator: Adobe Illustrator 27.5.0, SVG Export Plug-In . SVG Version: 6.00 Build 0)  -->
<svg version="1.1" id="Layer_1" xmlns="http://www.w3.org/2000/svg" xmlns:xlink="http://www.w3.org/1999/xlink" x="0px" y="0px"
	 viewBox="0 0 100 100" style="enable-background:new 0 0 100 100;" xml:space="preserve">
<style type="text/css">
	.st0{fill:#69D2D7;}
	.st1{fill:#FFFFFF;}
</style>
<circle class="st0" cx="50" cy="50" r="46.5"/>
<g>
	<path class="st1" d="M60.02,18.9H39.08c-0.63,0-1.14-0.51-1.14-1.14v-2.1c0-0.63,0.51-1.14,1.14-1.14h20.93
		c0.63,0,1.14,0.51,1.14,1.14v2.1C61.15,18.39,60.64,18.9,60.02,18.9z"/>
	<path class="st1" d="M60.02,85.48H39.08c-0.63,0-1.14-0.51-1.14-1.14v-2.1c0-0.63,0.51-1.14,1.14-1.14h20.93
		c0.63,0,1.14,0.51,1.14,1.14v2.1C61.15,84.96,60.64,85.48,60.02,85.48z"/>
	<path class="st1" d="M37.72,20.88h23.51c0.37,0,0.72,0.19,0.91,0.51c0.42,0.7,1.12,2.08,1.42,3.86c0.44,2.63,0,0.44,0,0.44
		s0.44,5.69,3.94,4.82l1.62-0.32c0.36-0.07,0.73,0.05,0.98,0.31c0.78,0.83,2.45,2.72,2.95,4.11c0.14,0.39,0.04,0.82-0.25,1.11
		l-0.38,0.38c-0.32,0.32-0.4,0.8-0.21,1.21c1.28,2.66,5.61,12.71,1.88,19.87c-0.02,0.03-0.03,0.06-0.04,0.09l-1.93,5.01
		c-0.15,0.39-0.06,0.83,0.24,1.13l0.27,0.27c0.34,0.34,0.41,0.85,0.17,1.27c-0.69,1.22-2.19,3.65-3.66,4.35
		c-0.4,0.19-0.88,0.09-1.19-0.22v0c-0.28-0.28-0.7-0.38-1.08-0.26l-0.56,0.19c-0.09,0.03-0.17,0.07-0.25,0.12l-0.83,0.56
		c-0.23,0.15-0.39,0.39-0.45,0.66c-0.36,1.75-1.78,8.34-2.54,8.34H38.26c-0.39,0-0.75-0.21-0.93-0.56c-0.37-0.71-0.99-2.3-1.76-5.85
		c-0.02-0.11-0.06-0.21-0.12-0.31c-0.41-0.71-2.26-3.74-3.42-3.36l-1.42,0.71c-0.28,0.14-0.62,0.16-0.91,0.02
		c-0.23-0.11-0.49-0.3-0.69-0.64c-0.04-0.06-0.07-0.12-0.12-0.17l-2.62-2.99c-0.25-0.28-0.33-0.67-0.21-1.03
		c0.16-0.48,0.45-1.14,0.9-1.59c0.34-0.34,0.45-0.85,0.23-1.27c-0.92-1.74-2.88-5.74-2.63-7.81c0.01-0.08,0.01-0.15,0-0.22
		c-0.11-1.14-0.95-11.03,2.94-15.51c0.32-0.37,0.32-0.92,0.03-1.31L26.8,35.8c-0.02-0.03-0.04-0.05-0.05-0.08
		c-0.14-0.23-0.75-1.36,0.03-2.15l2.82-3.22c0.17-0.19,0.4-0.32,0.66-0.35c0.47-0.06,1.23-0.09,1.62,0.3
		c0.14,0.14,0.31,0.25,0.51,0.3l1.02,0.25c0.29,0.07,0.6,0.02,0.85-0.15c0.38-0.25,0.84-0.73,0.84-1.51
		C35.1,29.2,36.85,20.88,37.72,20.88z M49.99,29.2c-11.61,0-21.02,9.41-21.02,21.02s9.41,21.02,21.02,21.02s21.02-9.41,21.02-21.02
		S61.6,29.2,49.99,29.2z"/>
</g>
</svg>
